<svg width="135" height="113" viewBox="0 0 135 113" fill="none" xmlns="http://www.w3.org/2000/svg">
<path d="M67.9636 112.906C67.4243 112.612 67.2515 112.168 67.2564 111.556C67.279 108.872 67.2563 106.193 67.2676 103.511C67.2676 102.757 67.7827 102.277 68.4463 102.38C68.7999 102.435 69.0276 102.663 69.2278 102.942C69.998 104.019 70.7875 105.084 71.5447 106.172C71.7692 106.495 71.8822 106.534 72.126 106.183C72.88 105.096 73.6664 104.031 74.443 102.954C74.8127 102.443 75.2019 102.275 75.6572 102.413C76.1642 102.566 76.4031 102.947 76.4031 103.606C76.4031 106.238 76.387 108.87 76.4144 111.502C76.4144 112.126 76.253 112.589 75.7088 112.904H75.1114C74.5689 112.644 74.38 112.224 74.3929 111.623C74.4236 110.104 74.4042 108.58 74.3929 107.058C74.3929 106.897 74.4591 106.735 74.3025 106.556C73.8068 107.239 73.3241 107.903 72.8494 108.571C72.1728 109.498 71.4737 109.498 70.7988 108.571L69.2585 106.435C69.2585 108.25 69.2359 109.915 69.2714 111.58C69.2827 112.193 69.1099 112.638 68.5529 112.912C68.3591 112.906 68.1589 112.906 67.9636 112.906Z" fill="#3274B9"/>
<path d="M25.93 112.905C25.817 112.775 25.6555 112.819 25.5135 112.787C22.8122 112.202 21.1153 109.638 21.464 106.65C21.6192 105.372 22.2429 104.196 23.2145 103.35C24.1861 102.505 25.4367 102.05 26.7244 102.073C29.2109 102.111 31.4181 104.225 31.7087 106.755C32.0623 109.824 29.9924 112.459 27.3929 112.84C27.3686 112.84 27.3493 112.882 27.325 112.906C26.8568 112.905 26.4015 112.905 25.93 112.905ZM26.5468 110.851C26.9277 110.865 27.3072 110.795 27.6577 110.645C28.9493 110.064 29.6226 109.031 29.6888 107.661C29.755 106.292 29.1867 105.147 27.9338 104.456C27.4036 104.177 26.8007 104.066 26.2059 104.139C25.6112 104.212 25.0529 104.465 24.606 104.865C24.0839 105.34 23.7154 105.961 23.5477 106.647C23.38 107.334 23.4208 108.054 23.6647 108.717C23.8723 109.323 24.259 109.852 24.7737 110.233C25.2885 110.614 25.9068 110.829 26.5468 110.851Z" fill="#3474B9"/>
<path d="M52.2615 112.905C51.7141 112.619 51.5543 112.164 51.5575 111.558C51.5817 108.926 51.5575 106.299 51.5688 103.667C51.5688 103.021 51.7739 102.677 52.234 102.52C52.6942 102.364 53.093 102.52 53.4902 103.055C54.7819 104.814 56.0736 106.574 57.3653 108.337C57.4589 108.463 57.5138 108.627 57.7382 108.715V107.52C57.7382 106.212 57.7382 104.909 57.7382 103.601C57.7382 102.964 58.1499 102.512 58.707 102.504C59.264 102.496 59.7129 102.964 59.7129 103.62C59.7129 106.334 59.7129 109.049 59.7129 111.759C59.7129 112.312 59.4433 112.647 59.0138 112.91H58.418C58.1057 112.697 57.8376 112.427 57.6284 112.112C56.3863 110.399 55.1409 108.691 53.8922 106.987C53.8034 106.861 53.7001 106.746 53.5435 106.562C53.5435 108.295 53.5241 109.929 53.5548 111.568C53.5677 112.177 53.3933 112.626 52.8524 112.916C52.657 112.905 52.4617 112.905 52.2615 112.905Z" fill="#3474B9"/>
<path d="M84.8507 112.905C84.3049 112.619 84.1435 112.164 84.1467 111.558C84.1709 108.926 84.1467 106.299 84.1596 103.667C84.1596 103.021 84.363 102.677 84.8232 102.52C85.2834 102.364 85.6838 102.52 86.0794 103.055C87.3711 104.813 88.6627 106.578 89.9544 108.337C90.0497 108.463 90.1046 108.627 90.3242 108.715V107.52C90.3242 106.212 90.3242 104.909 90.3242 103.601C90.3242 102.964 90.7359 102.512 91.2929 102.504C91.85 102.496 92.2972 102.964 92.2972 103.62C92.2972 106.334 92.2972 109.049 92.3053 111.759C92.3053 112.312 92.034 112.647 91.6062 112.91H91.0104C90.6989 112.697 90.4309 112.426 90.2208 112.112C88.9787 110.399 87.7333 108.691 86.4846 106.987C86.3942 106.861 86.2925 106.746 86.1359 106.562C86.1359 108.295 86.1165 109.929 86.1472 111.568C86.1585 112.177 85.9857 112.626 85.4448 112.916C85.2527 112.905 85.0509 112.905 84.8507 112.905Z" fill="#3474B9"/>
<path d="M95.3843 112.905C94.8353 112.619 94.6787 112.164 94.6819 111.558C94.7062 108.915 94.6819 106.267 94.6932 103.62C94.6932 102.709 95.0355 102.364 95.9542 102.375C96.873 102.386 97.7723 102.296 98.6684 102.523C101.108 103.148 102.705 105.269 102.65 107.831C102.61 109.014 102.172 110.148 101.407 111.05C100.642 111.952 99.5955 112.57 98.4359 112.803C98.3423 112.823 98.2357 112.803 98.1695 112.905H95.3843ZM96.6921 107.599C96.6921 108.577 96.6921 109.554 96.6921 110.53C96.6921 110.744 96.6921 110.906 96.9957 110.911C97.9644 110.93 98.8379 110.717 99.5677 110.061C100.086 109.603 100.445 108.99 100.59 108.313C100.735 107.636 100.66 106.93 100.375 106.299C100.079 105.666 99.5936 105.14 98.9866 104.793C98.3797 104.446 97.6803 104.295 96.9844 104.361C96.6614 104.389 96.7099 104.577 96.7099 104.77C96.6921 105.713 96.6921 106.652 96.6921 107.599Z" fill="#3474B9"/>
<path d="M108.006 112.905C106.942 112.6 105.917 112.214 105.037 111.515C104.714 111.259 104.516 110.957 104.579 110.538C104.688 109.787 105.478 109.488 106.133 109.963C106.789 110.437 107.465 110.84 108.266 110.969C109.067 111.098 109.857 110.969 110.517 110.447C111.177 109.926 111.137 109.252 110.38 108.821C109.806 108.525 109.187 108.326 108.549 108.232C107.797 108.112 107.069 107.871 106.393 107.52C104.398 106.412 104.323 103.985 106.259 102.767C107.465 102.013 108.765 101.879 110.12 102.292C110.781 102.51 111.403 102.829 111.965 103.239C112.176 103.374 112.324 103.587 112.377 103.832C112.43 104.077 112.384 104.332 112.249 104.543C112.113 104.753 111.9 104.901 111.656 104.954C111.411 105.008 111.155 104.961 110.945 104.826C110.517 104.574 110.117 104.28 109.653 104.111C108.804 103.812 107.984 103.867 107.241 104.39C106.555 104.874 106.595 105.443 107.323 105.855C107.909 106.189 108.565 106.299 109.209 106.436C109.975 106.576 110.712 106.843 111.389 107.226C113.309 108.385 113.391 110.697 111.578 112.025C110.948 112.485 110.222 112.671 109.508 112.897C109.001 112.905 108.502 112.905 108.006 112.905Z" fill="#3474B9"/>
<path d="M43.5168 112.904C42.9662 112.619 42.8096 112.163 42.8129 111.558C42.8371 108.911 42.8128 106.263 42.8258 103.615C42.8258 102.723 43.1665 102.374 44.0464 102.374H48.3671C49.0775 102.374 49.549 102.764 49.5651 103.353C49.5813 103.942 49.0969 104.37 48.3639 104.373C47.3225 104.373 46.2778 104.39 45.2364 104.373C44.9022 104.365 44.8085 104.48 44.8247 104.798C44.8497 105.277 44.8497 105.757 44.8247 106.235C44.8053 106.578 44.9377 106.652 45.2525 106.644C46.097 106.625 46.9414 106.644 47.7858 106.644C48.5673 106.644 48.9952 107.001 49 107.634C49.0049 108.267 48.5673 108.643 47.802 108.643C46.9414 108.643 46.0808 108.654 45.2186 108.643C44.9199 108.635 44.8101 108.722 44.8247 109.032C44.8489 109.542 44.844 110.058 44.8247 110.573C44.8133 110.859 44.9199 110.938 45.1976 110.934C46.2084 110.922 47.2175 110.934 48.2266 110.934C48.9887 110.934 49.3342 111.123 49.5022 111.626C49.6701 112.128 49.5151 112.459 48.8902 112.934C47.0948 112.912 45.3037 112.902 43.5168 112.904Z" fill="#3473B8"/>
<path d="M34.9724 112.905C34.438 112.611 34.2604 112.167 34.2652 111.555C34.2878 108.906 34.2652 106.26 34.2765 103.611C34.2765 102.723 34.6269 102.358 35.502 102.374C36.5273 102.394 37.5558 102.257 38.5698 102.452C39.3689 102.602 40.0834 103.045 40.5739 103.694C41.0644 104.343 41.2957 105.151 41.2227 105.961C41.1497 106.771 40.7777 107.525 40.1791 108.075C39.5806 108.626 38.7985 108.934 37.9853 108.939C37.5717 108.961 37.1572 108.961 36.7436 108.939C36.3271 108.898 36.2496 109.071 36.2593 109.444C36.2867 110.156 36.235 110.87 36.2754 111.577C36.3109 112.194 36.1139 112.635 35.5601 112.909C35.368 112.905 35.1678 112.905 34.9724 112.905ZM36.2641 105.67H36.2835C36.2835 105.993 36.2835 106.329 36.2835 106.66C36.2754 106.875 36.3577 106.951 36.5693 106.946C37.0181 106.935 37.4621 106.946 37.9094 106.946C38.2437 106.951 38.5673 106.828 38.8141 106.602C39.0608 106.377 39.2119 106.065 39.2366 105.732C39.2753 105.057 38.7102 104.448 37.9837 104.38C37.8515 104.369 37.7186 104.369 37.5865 104.38C37.1667 104.411 36.6048 104.191 36.3626 104.482C36.143 104.714 36.2754 105.257 36.2512 105.67H36.2641Z" fill="#3473B8"/>
<path d="M80.3806 112.905C79.8317 112.622 79.6702 112.167 79.6734 111.561C79.6976 108.882 79.6734 106.208 79.6863 103.529C79.6863 102.814 80.0819 102.366 80.6955 102.374C80.8238 102.373 80.9511 102.397 81.0702 102.444C81.1892 102.492 81.2975 102.564 81.3889 102.654C81.4802 102.744 81.5527 102.851 81.6022 102.97C81.6517 103.088 81.6772 103.215 81.6772 103.343C81.6852 106.203 81.6772 109.061 81.6852 111.921C81.6852 112.428 81.351 112.675 80.978 112.903L80.3806 112.905Z" fill="#3473B8"/>
<path d="M0.168884 69.2781V65.9969C0.286751 63.3389 0.480505 60.6826 0.856709 58.044C1.52099 53.3637 2.66865 48.7649 4.28129 44.3214C6.63878 37.8082 10.0037 31.7054 14.2531 26.2356C19.501 19.4394 26.0635 13.7696 33.5493 9.56442C40.2968 5.76156 47.5044 3.25539 55.1237 1.90865C58.4488 1.33715 61.8092 0.994541 65.1811 0.883251L69.1563 0.883251C72.294 0.99328 75.4218 1.30016 78.521 1.80207C83.8083 2.6705 88.9755 4.15659 93.9163 6.22986C102.248 9.74043 109.557 14.7366 115.781 21.2927C120.887 26.6658 125.046 32.8643 128.083 39.6256C130.626 45.2648 132.389 51.2244 133.322 57.3399C133.732 59.8532 133.969 62.3918 134.03 64.9376V70.4279C133.996 72.2137 133.861 73.9961 133.624 75.7664C133.113 80.0175 132.194 84.2095 130.88 88.2843C129.416 92.8198 127.446 97.1759 125.007 101.271C123.806 103.281 121.755 104.224 119.438 103.843C117.388 103.505 115.644 101.784 115.208 99.6203C114.948 98.3928 115.159 97.1122 115.801 96.0338C120.927 87.2586 123.584 77.2594 123.488 67.0965C123.406 57.6177 121.158 48.6781 116.545 40.4055C109.715 28.1734 99.7128 19.5455 86.5666 14.6268C80.9827 12.5344 75.0897 11.3852 69.1288 11.2261C55.1302 10.832 42.6057 14.9401 31.707 23.7359C22.6927 31.0025 16.5039 40.2618 13.139 51.3652C11.3563 57.2714 10.5806 63.4357 10.8447 69.5995C11.1574 78.3271 13.4856 86.8639 17.647 94.5417C18.0862 95.3491 18.6013 96.1258 18.8015 97.0527C19.3359 99.5347 18.0168 102.107 15.6982 103.074C13.2763 104.084 10.5428 103.27 9.17518 101.048C7.35229 98.0813 5.89267 94.9357 4.62682 91.69C2.70411 86.7054 1.39053 81.5069 0.714623 76.2072C0.406233 73.9045 0.259302 71.5954 0.168884 69.2781Z" fill="#3173B8"/>
<path d="M83.8603 54.7165C83.8603 57.0548 83.8603 59.3881 83.8603 61.7248C83.8603 62.0703 83.828 62.2237 83.4001 62.2399C78.9551 62.432 75.1285 65.9862 74.6264 70.3736C74.5841 70.852 74.5668 71.3323 74.5747 71.8124C74.544 75.9673 74.6344 80.1238 74.5165 84.2787C74.5032 85.7201 74.2634 87.1505 73.8061 88.5175C73.0553 90.6507 71.5715 91.9538 69.3595 92.4108C67.6653 92.7611 65.9142 92.7274 64.2347 92.3123C61.6852 91.6955 60.2321 90.0096 59.5992 87.5196C59.223 86.0307 59.1406 84.5112 59.1325 82.9901C59.1083 79.1646 59.0938 75.3391 59.1325 71.5137C59.1385 69.4218 58.4372 67.3892 57.1426 65.7462C55.8479 64.1031 54.0359 62.946 52.0008 62.4627C51.4565 62.3232 50.8979 62.2468 50.3362 62.235C49.8792 62.235 49.8518 62.0623 49.8518 61.6892C49.8625 57.5812 49.8625 53.4737 49.8518 49.3667V48.0232C49.8518 47.2029 49.8518 47.1835 50.6962 47.2158C56.7009 47.4741 61.9646 49.5718 66.4419 53.5942C66.7438 53.8655 66.8811 53.8655 67.183 53.5942C70.8863 50.2459 75.5158 48.0961 80.4631 47.4273C81.4457 47.2903 82.4357 47.2137 83.4276 47.198C83.7925 47.198 83.8603 47.3127 83.8603 47.6469C83.8538 50.0158 83.8603 52.3638 83.8603 54.7165Z" fill="#E52D22"/>
<path d="M109.693 80.1153V88.8594C109.694 89.306 109.665 89.7522 109.606 90.1949C109.383 91.7855 108.248 92.6381 106.658 92.3942C104.862 92.1197 103.366 91.2154 101.987 90.1158C98.1939 87.0912 95.6525 83.2496 94.5594 78.4892C94.3337 77.5228 94.2151 76.5345 94.2058 75.5422C94.1977 74.0889 94.2058 72.6275 94.2058 71.1709C94.1864 67.058 90.9072 63.1502 86.8578 62.4187C86.3549 62.3258 85.8461 62.268 85.3352 62.2459C85.0122 62.233 84.9105 62.1506 84.9186 61.8245C84.9412 61.0316 84.9267 60.2339 84.9267 59.441C84.9267 55.5477 84.9267 51.6593 84.9138 47.766C84.9138 47.33 85.0203 47.2089 85.4611 47.225C92.7818 47.4963 98.885 50.3545 103.716 55.8578C106.611 59.1503 108.429 63 109.273 67.297C109.552 68.7086 109.694 70.1438 109.698 71.5827C109.696 74.4226 109.694 77.2668 109.693 80.1153Z" fill="#4BAB37"/>
<path d="M24.0332 79.9062C24.0332 77.1255 24.0332 74.3448 24.0332 71.5625C24.0283 66.7204 25.5212 61.9954 28.3071 58.0353C32.1821 52.4336 37.5103 48.9811 44.1851 47.6457C45.5648 47.3836 46.9644 47.2405 48.3686 47.2177C48.6915 47.2097 48.7884 47.2953 48.7884 47.6263C48.7765 52.363 48.7765 57.0998 48.7884 61.8365C48.7884 62.1272 48.7302 62.2241 48.4122 62.237C46.2711 62.3084 44.222 63.1245 42.618 64.5447C41.0141 65.9649 39.9558 67.9002 39.6255 70.0171C39.4091 71.3849 39.5205 72.7623 39.5237 74.13C39.5237 76.2293 39.3623 78.2897 38.6406 80.2743C36.9872 84.8345 34.0761 88.3483 29.8426 90.7495C28.8952 91.297 27.8486 91.651 26.7635 91.7911C25.1182 91.9913 24.0493 91.1145 24.038 89.4496C24.0219 86.2652 24.0332 83.0841 24.0332 79.9062Z" fill="#F6AC28"/>
<path d="M102.022 49.3394C97.7855 49.3475 94.2722 45.8676 94.3319 41.6529C94.3949 37.0249 98.2958 34.0828 101.98 34.0714C105.923 34.0553 109.669 37.2736 109.685 41.6368C109.691 42.6468 109.498 43.648 109.115 44.5828C108.733 45.5176 108.169 46.3674 107.457 47.0834C106.745 47.7994 105.898 48.3673 104.965 48.7545C104.032 49.1417 103.032 49.3405 102.022 49.3394Z" fill="#4AAC37"/>
<path d="M31.7124 49.327C27.4627 49.2996 23.9945 45.8358 24.0607 41.6051C24.1318 37.0836 27.9761 34.0155 31.8447 34.0639C35.589 34.1108 39.4092 37.1514 39.4221 41.7149C39.4334 45.9214 35.9281 49.3577 31.7124 49.327Z" fill="#F6AD27"/>
<path d="M66.7416 49.3385C65.7349 49.3385 64.7383 49.1388 63.8094 48.7509C62.8806 48.363 62.0379 47.7945 61.3302 47.0786C60.6226 46.3626 60.064 45.5132 59.687 44.5798C59.3099 43.6464 59.1218 42.6474 59.1335 41.6407C59.1884 37.1031 62.9553 34.0124 66.8675 34.0673C70.7797 34.1222 74.5304 37.4325 74.4287 41.9346C74.3383 45.949 70.8346 49.3708 66.7416 49.3385Z" fill="#E52D23"/>
</svg>
